<svg xmlns="http://www.w3.org/2000/svg" fill="none" viewBox="0 0 108 67"><rect width="108" height="67" fill="#3bb89a" rx="3"/><path fill="#fff" d="M14.746 15h-1.258l-.5-1.3H10.7l-.472 1.3H9l2.23-5.727h1.223zm-2.129-2.266l-.789-2.125-.773 2.125zM15.747 15V9.273h1.731l1.04 3.907 1.027-3.907h1.734V15h-1.074v-4.508L19.068 15h-1.113l-1.133-4.508V15zm7.08 0V9.273h4.246v.97h-3.09v1.269h2.876v.965h-2.875v1.558h3.199V15zm5.74 0V9.273h2.434c.612 0 1.056.053 1.332.157.279.101.501.284.668.547.166.263.25.563.25.902 0 .43-.126.785-.38 1.066-.252.279-.63.455-1.132.528.25.146.456.306.617.48.164.175.384.485.66.93l.7 1.117h-1.383l-.836-1.246c-.297-.445-.5-.725-.61-.84a.86.86 0 00-.347-.238c-.123-.044-.317-.067-.582-.067h-.235V15zm1.156-3.305h.856c.555 0 .9-.023 1.039-.07.138-.047.246-.128.324-.242s.117-.258.117-.43a.674.674 0 00-.156-.465.695.695 0 00-.434-.226 9.75 9.75 0 00-.843-.02h-.903zM34.71 15V9.273h1.157V15zm6.326-2.106l1.121.356c-.172.625-.458 1.09-.86 1.395-.398.302-.904.453-1.519.453-.76 0-1.385-.26-1.875-.778-.49-.52-.734-1.231-.734-2.132 0-.954.246-1.693.738-2.22.492-.528 1.14-.792 1.942-.792.7 0 1.27.207 1.707.62.26.246.455.597.586 1.056l-1.145.273a1.21 1.21 0 00-.426-.703 1.206 1.206 0 00-.78-.258c-.425 0-.77.152-1.036.457-.263.305-.395.798-.395 1.48 0 .725.13 1.24.391 1.547s.599.461 1.016.461c.307 0 .571-.097.793-.293.22-.195.38-.502.476-.921zM48.716 15H47.46l-.5-1.3h-2.29l-.472 1.3H42.97l2.23-5.727h1.223zm-2.129-2.266l-.789-2.125-.773 2.125zM49.745 15V9.273h1.125l2.344 3.825V9.273h1.074V15h-1.16l-2.309-3.734V15zm8.796 0V9.273h4.246v.97h-3.09v1.269h2.876v.965h-2.875v1.558h3.199V15zm5.154 0l1.957-2.988-1.773-2.739h1.351l1.149 1.84 1.125-1.84h1.34l-1.782 2.782L69.02 15h-1.394l-1.27-1.98L65.082 15zm6.318 0V9.273h1.856c.703 0 1.161.03 1.375.086.328.086.603.274.824.563.221.286.332.657.332 1.113 0 .352-.064.647-.191.887s-.29.428-.489.566a1.675 1.675 0 01-.597.27c-.276.055-.676.082-1.2.082h-.753V15zm1.156-4.758v1.625h.633c.456 0 .76-.03.914-.09a.762.762 0 00.492-.726.74.74 0 00-.183-.516.8.8 0 00-.465-.254c-.138-.026-.415-.039-.832-.039zM75.754 15V9.273h2.434c.612 0 1.056.053 1.332.157.278.101.501.284.668.547.166.263.25.563.25.902 0 .43-.127.785-.38 1.066-.252.279-.63.455-1.132.528.25.146.456.306.617.48.164.175.384.485.66.93l.7 1.117h-1.383l-.836-1.246c-.297-.445-.5-.725-.61-.84a.86.86 0 00-.347-.238c-.123-.044-.317-.067-.582-.067h-.235V15zm1.156-3.305h.856c.555 0 .9-.023 1.039-.07s.246-.128.324-.242a.745.745 0 00.117-.43.674.674 0 00-.156-.465.695.695 0 00-.433-.226 9.753 9.753 0 00-.844-.02h-.903zM81.93 15V9.273h4.247v.97h-3.09v1.269h2.875v.965h-2.875v1.558h3.199V15zm5.443-1.863l1.125-.11c.068.378.205.655.41.832.209.177.489.266.84.266.373 0 .653-.078.84-.234.19-.16.285-.344.285-.555 0-.136-.04-.25-.12-.344-.079-.096-.217-.18-.415-.25-.135-.047-.444-.13-.925-.25-.62-.154-1.055-.342-1.305-.566a1.49 1.49 0 01-.527-1.153c0-.291.082-.563.246-.816.166-.255.405-.45.714-.582.313-.133.69-.2 1.13-.2.718 0 1.258.158 1.62.473.365.316.556.736.575 1.262l-1.157.05c-.05-.293-.156-.504-.32-.632-.161-.13-.405-.195-.73-.195-.336 0-.6.069-.79.207a.417.417 0 00-.183.355.44.44 0 00.172.348c.146.122.5.25 1.062.383s.978.27 1.246.414c.271.14.482.334.633.582.154.245.23.548.23.91a1.686 1.686 0 01-1.046 1.562c-.333.139-.749.208-1.246.208-.724 0-1.28-.167-1.668-.5-.388-.336-.62-.825-.696-1.465zm5.736 0l1.125-.11c.068.378.205.655.41.832.209.177.489.266.84.266.373 0 .653-.078.84-.234.19-.16.285-.344.285-.555 0-.136-.04-.25-.12-.344-.079-.096-.217-.18-.415-.25-.135-.047-.444-.13-.926-.25-.62-.154-1.054-.342-1.304-.566-.352-.315-.528-.7-.528-1.153 0-.291.082-.563.247-.816.166-.255.404-.45.714-.582.313-.133.69-.2 1.13-.2.718 0 1.258.158 1.62.473.365.316.556.736.575 1.262l-1.157.05c-.05-.293-.156-.504-.32-.632-.162-.13-.405-.195-.73-.195-.336 0-.6.069-.79.207a.417.417 0 00-.183.355.44.44 0 00.172.348c.146.122.5.25 1.062.383.563.133.978.27 1.246.414.271.14.482.334.633.582.154.245.23.548.23.91 0 .328-.09.635-.273.922s-.44.5-.773.64c-.334.139-.749.208-1.246.208-.724 0-1.28-.167-1.668-.5-.388-.336-.62-.825-.696-1.465z"/><path fill="#000" d="M10.542 55H9.307v-4.654a4.256 4.256 0 01-1.595.936v-1.12c.322-.106.672-.305 1.05-.598.378-.296.637-.64.778-1.033h1.002zm6.52-1.147V55h-4.328c.047-.434.187-.844.422-1.23.234-.39.697-.906 1.388-1.547.557-.519.898-.87 1.024-1.055.17-.255.255-.507.255-.756 0-.275-.075-.486-.224-.633-.146-.15-.35-.224-.61-.224-.259 0-.464.078-.616.233-.152.155-.24.413-.264.774l-1.23-.123c.073-.68.303-1.168.69-1.464.387-.296.87-.444 1.45-.444.636 0 1.135.172 1.499.514s.545.77.545 1.28c0 .29-.053.566-.159.83-.102.26-.266.535-.492.822-.15.19-.419.464-.809.821-.39.358-.637.595-.742.712a2.196 2.196 0 00-.25.343zm1.296-.563l1.195-.144c.038.304.14.537.308.698.167.161.369.242.606.242a.826.826 0 00.642-.29c.176-.193.264-.454.264-.782 0-.31-.084-.557-.25-.739s-.371-.272-.612-.272c-.158 0-.347.03-.567.092l.137-1.006c.334.009.588-.063.764-.216a.78.78 0 00.264-.615c0-.217-.065-.39-.193-.518a.695.695 0 00-.515-.194.744.744 0 00-.54.22c-.15.147-.24.36-.273.642l-1.138-.194c.08-.39.198-.7.356-.931.161-.235.384-.418.668-.55.287-.134.608-.202.962-.202.607 0 1.093.194 1.46.58.301.317.452.674.452 1.073 0 .565-.309 1.016-.927 1.353.369.08.664.256.883.532.223.275.334.608.334.997 0 .566-.206 1.048-.62 1.446-.413.399-.927.598-1.542.598-.583 0-1.066-.167-1.45-.501-.384-.337-.607-.777-.668-1.319zM26.333 55v-1.296h-2.637v-1.081l2.795-4.092h1.037v4.087h.8v1.086h-.8V55zm0-2.382v-2.202l-1.48 2.202zM35.586 55H34.35v-4.654a4.256 4.256 0 01-1.595.936v-1.12c.322-.106.672-.305 1.05-.598.378-.296.637-.64.778-1.033h1.002zm6.52-1.147V55h-4.328c.047-.434.187-.844.422-1.23.234-.39.697-.906 1.388-1.547.557-.519.898-.87 1.024-1.055.17-.255.255-.507.255-.756 0-.275-.075-.486-.224-.633-.146-.15-.35-.224-.61-.224-.259 0-.464.078-.616.233-.152.155-.24.413-.264.774l-1.23-.123c.073-.68.303-1.168.69-1.464s.87-.444 1.45-.444c.636 0 1.135.172 1.498.514s.545.77.545 1.28c0 .29-.052.566-.158.83-.102.26-.266.535-.492.822-.15.19-.419.464-.809.821-.39.358-.637.595-.742.712a2.197 2.197 0 00-.25.343zm1.296-.563l1.195-.144c.038.304.14.537.308.698.167.161.369.242.606.242a.826.826 0 00.642-.29c.176-.193.264-.454.264-.782 0-.31-.084-.557-.251-.739s-.37-.272-.61-.272c-.159 0-.348.03-.568.092l.137-1.006c.334.009.588-.063.764-.216a.781.781 0 00.264-.615c0-.217-.065-.39-.193-.518a.695.695 0 00-.515-.194c-.21 0-.39.074-.54.22s-.24.36-.273.642l-1.138-.194c.08-.39.198-.7.356-.931.161-.235.384-.418.668-.55.287-.134.608-.202.962-.202.607 0 1.093.194 1.46.58.301.317.452.674.452 1.073 0 .565-.309 1.016-.927 1.353.369.08.663.256.883.532.223.275.334.608.334.997 0 .566-.206 1.048-.62 1.446s-.927.598-1.542.598c-.583 0-1.066-.167-1.45-.501-.384-.337-.607-.777-.668-1.319zM51.377 55v-1.296H48.74v-1.081l2.795-4.092h1.037v4.087h.8v1.086h-.8V55zm0-2.382v-2.202l-1.481 2.202zm3.106.725l1.23-.127c.035.278.14.5.312.663a.85.85 0 001.253-.07c.178-.21.268-.527.268-.95 0-.395-.09-.69-.268-.887a.876.876 0 00-.69-.299c-.355 0-.673.157-.954.47L54.632 52l.633-3.353h3.265V49.8h-2.329l-.193 1.095c.275-.138.556-.207.844-.207.547 0 1.012.2 1.393.598.38.398.57.915.57 1.55 0 .531-.153 1.004-.46 1.42-.42.569-1.001.853-1.745.853-.595 0-1.08-.16-1.455-.48-.375-.318-.599-.748-.672-1.287zm9.676-3.208l-1.196.132c-.029-.246-.105-.428-.228-.545a.666.666 0 00-.48-.176c-.26 0-.481.118-.663.352-.178.234-.291.722-.338 1.463.307-.363.69-.545 1.147-.545.515 0 .956.197 1.323.59.369.392.553.899.553 1.52 0 .659-.193 1.188-.58 1.586-.387.399-.883.598-1.49.598-.65 0-1.185-.252-1.604-.756-.418-.507-.628-1.336-.628-2.487 0-1.181.218-2.032.655-2.553s1.003-.783 1.7-.783c.49 0 .894.138 1.213.413.323.273.528.67.616 1.191zm-2.8 2.694c0 .402.093.712.277.932.185.217.396.325.633.325a.72.72 0 00.571-.268c.153-.179.229-.472.229-.879 0-.419-.082-.725-.246-.918a.77.77 0 00-.616-.295.77.77 0 00-.602.281c-.164.185-.246.459-.246.822zM71.65 55h-1.234v-4.654a4.257 4.257 0 01-1.596.936v-1.12c.323-.106.673-.305 1.05-.598.379-.296.638-.64.778-1.033h1.002zm4.438-6.469c.624 0 1.112.223 1.463.668.42.528.629 1.402.629 2.624 0 1.219-.211 2.095-.633 2.628-.349.44-.835.659-1.46.659-.626 0-1.131-.24-1.515-.72-.384-.484-.576-1.344-.576-2.58 0-1.213.211-2.086.633-2.62.349-.439.835-.659 1.459-.659zm0 1.024a.611.611 0 00-.4.145c-.117.094-.208.264-.272.51-.085.32-.128.857-.128 1.613s.038 1.276.114 1.56c.076.281.172.469.286.562.117.094.25.14.4.14s.283-.046.4-.14c.117-.096.208-.268.272-.514.085-.316.128-.852.128-1.608 0-.756-.038-1.275-.115-1.556-.076-.284-.172-.473-.29-.567a.594.594 0 00-.395-.145zm5.51-1.024c.624 0 1.111.223 1.463.668.419.528.628 1.402.628 2.624 0 1.219-.21 2.095-.632 2.628-.349.44-.835.659-1.46.659-.626 0-1.132-.24-1.515-.72-.384-.484-.576-1.344-.576-2.58 0-1.213.21-2.086.633-2.62.348-.439.835-.659 1.459-.659zm0 1.024a.611.611 0 00-.4.145c-.117.094-.208.264-.273.51-.085.32-.127.857-.127 1.613s.038 1.276.114 1.56c.076.281.171.469.286.562.117.094.25.14.4.14s.282-.046.4-.14c.117-.096.208-.268.272-.514.085-.316.128-.852.128-1.608 0-.756-.039-1.275-.115-1.556-.076-.284-.173-.473-.29-.567a.594.594 0 00-.395-.145zm5.51-1.024c.623 0 1.111.223 1.463.668.419.528.628 1.402.628 2.624 0 1.219-.21 2.095-.633 2.628-.348.44-.835.659-1.459.659-.627 0-1.132-.24-1.516-.72-.384-.484-.575-1.344-.575-2.58 0-1.213.21-2.086.632-2.62.35-.439.835-.659 1.46-.659zm0 1.024a.611.611 0 00-.4.145c-.118.094-.209.264-.273.51-.085.32-.127.857-.127 1.613s.038 1.276.114 1.56c.076.281.171.469.285.562.118.094.251.14.4.14.15 0 .283-.046.4-.14.117-.096.208-.268.273-.514.085-.316.127-.852.127-1.608 0-.756-.038-1.275-.114-1.556-.076-.284-.173-.473-.29-.567a.594.594 0 00-.396-.145zm5.51-1.024c.623 0 1.111.223 1.463.668.418.528.628 1.402.628 2.624 0 1.219-.21 2.095-.633 2.628-.348.44-.835.659-1.459.659-.627 0-1.132-.24-1.516-.72-.384-.484-.576-1.344-.576-2.58 0-1.213.211-2.086.633-2.62.349-.439.835-.659 1.46-.659zm0 1.024a.611.611 0 00-.4.145c-.118.094-.209.264-.273.51-.085.32-.128.857-.128 1.613s.038 1.276.115 1.56c.076.281.171.469.285.562.117.094.25.14.4.14s.283-.046.4-.14c.117-.096.208-.268.273-.514.084-.316.127-.852.127-1.608 0-.756-.038-1.275-.114-1.556-.076-.284-.173-.473-.29-.567a.594.594 0 00-.396-.145zm5.509-1.024c.624 0 1.112.223 1.463.668.419.528.629 1.402.629 2.624 0 1.219-.211 2.095-.633 2.628-.349.44-.835.659-1.459.659-.627 0-1.132-.24-1.516-.72-.384-.484-.576-1.344-.576-2.58 0-1.213.211-2.086.633-2.62.349-.439.835-.659 1.459-.659zm0 1.024a.611.611 0 00-.4.145c-.117.094-.208.264-.272.51-.085.32-.128.857-.128 1.613s.038 1.276.114 1.56c.077.281.172.469.286.562.117.094.25.14.4.14s.283-.046.4-.14c.117-.096.208-.268.272-.514.085-.316.128-.852.128-1.608 0-.756-.038-1.275-.115-1.556-.076-.284-.172-.473-.29-.567a.594.594 0 00-.395-.145zM81.542 36h-1.235v-4.654a4.255 4.255 0 01-1.595.936v-1.12c.322-.106.672-.305 1.05-.598.378-.296.637-.64.778-1.033h1.002zm6.02-1.147V36h-4.328c.047-.434.187-.844.422-1.23.234-.39.697-.906 1.388-1.547.557-.519.898-.87 1.024-1.055.17-.255.255-.507.255-.756 0-.275-.074-.486-.224-.633-.146-.15-.35-.224-.61-.224-.259 0-.464.078-.616.233-.152.155-.24.413-.264.774l-1.23-.123c.073-.68.303-1.168.69-1.464.387-.296.87-.444 1.45-.444.636 0 1.135.172 1.499.514s.544.77.544 1.28c0 .29-.052.566-.158.83-.102.26-.266.535-.492.822-.15.19-.419.464-.809.821-.39.358-.637.595-.742.712a2.196 2.196 0 00-.25.343zm.796-.563l1.195-.144c.038.304.14.537.308.698.167.161.369.242.606.242a.826.826 0 00.642-.29c.176-.193.264-.454.264-.782 0-.31-.084-.557-.25-.739s-.372-.272-.612-.272c-.158 0-.347.03-.567.092l.137-1.006c.334.009.588-.063.764-.216a.78.78 0 00.264-.615c0-.217-.065-.39-.194-.518a.695.695 0 00-.514-.194.744.744 0 00-.54.22c-.15.147-.24.36-.273.642l-1.138-.194c.08-.39.198-.7.356-.931.161-.235.384-.418.668-.55.287-.134.608-.202.962-.202.607 0 1.093.194 1.46.58.301.317.452.674.452 1.073 0 .565-.309 1.016-.927 1.353.369.08.663.256.883.532.223.275.334.608.334.997 0 .566-.206 1.048-.62 1.446-.412.399-.927.598-1.542.598-.583 0-1.066-.167-1.45-.501-.384-.337-.607-.777-.668-1.319zM95.833 36v-1.296h-2.637v-1.081l2.795-4.092h1.037v4.087h.8v1.086h-.8V36zm0-2.382v-2.202l-1.48 2.202z"/><path stroke="#f94c45" stroke-width="2" d="M88.5 41c4.12 0 7.9-.804 10.688-2.15C101.905 37.54 104 35.534 104 33s-2.095-4.539-4.812-5.85C96.4 25.804 92.62 25 88.5 25s-7.9.804-10.688 2.15C75.096 28.46 73 30.466 73 33s2.095 4.539 4.812 5.85C80.6 40.196 84.38 41 88.5 41z"/></svg>