<svg xmlns="http://www.w3.org/2000/svg" fill="none" viewBox="0 0 108 67"><rect width="108" height="67" fill="#FFEEA1" rx="3"/><path fill="#000" d="M0 11h108v14H0z"/><path fill="#fff" d="M10 36h61v14H10z"/><path fill="#0052A9" fill-rule="evenodd" d="M22.802 47.947c.61-.552 1.092-1.232 1.576-1.884 1.234-1.844 2.302-3.783 3.443-5.68.134-.22.266-.441.399-.662a53.12 53.12 0 01-.649 2.778c-.326 1.305-.755 2.586-1.028 3.902-.095.553-.088 1.115-.094 1.673.033.197.163.35.392.227 1.41-.76 1.387-.727 2.223-1.496.02-.02.041-.038.062-.057.175.19.379.6.487.78.262.391.48.527.963.508.55-.13 1.1-.233 1.664-.292.312-.024.237-.02.413-.029-.108.084-.213.171-.329.248l2.19-.855c.572-.404 1.039-.92 1.498-1.44.322.634.423 1.359.505 2.055.032.113.045.234.096.34.252.537.814.347 1.223.114.805-.456 1.598-.933 2.396-1.4l.16-.113c.048.004.096.005.142.019.218.068.419.247.617.356.301.164.256.133.598.266.802.21 1.615-.019 2.423-.06 1.129.037 2.252.143 3.381.17.541-.007 1.095.043 1.615-.127L51 45.863c-.47.311-1.069.225-1.609.256-1.124.001-2.243-.105-3.362-.195-.4.002-.41-.012-.798.042-.519.072-1.036.2-1.562.083-.278-.101-.54-.211-.79-.37-.208-.133-.193-.163-.413-.276-.08-.042-.166-.072-.248-.107-1.128.07-.229-.024-2.535 1.244-.315.173-.61.376-.9.583-.147-.07-.198-.29-.236-.438-.131-.885-.252-1.81-.756-2.58-.081-.077-.135-.268-.242-.232-2.133.735-2.165.94-3.269 2.25-.205.225-.412.45-.623.671l-.113.01c-.556.05-1.11.119-1.647.276-.43.081-.612.001-.863-.352-.163-.264-.39-.75-.605-.947-.048-.045-.108-.072-.162-.108-.862-.037-1.69.773-2.357 1.414a8.46 8.46 0 01.083-1.372c.22-1.291.568-2.555.883-3.825.267-1.06.555-2.116.79-3.182.011-.05.236-1.15.24-1.318.003-.132-.043-.26-.065-.39-.504.266-1.03.493-1.51.798-.088.057-.109.177-.16.266-.095.166-.186.333-.279.499a98.06 98.06 0 01-1.392 2.391c-1.137 1.916-2.223 3.864-3.51 5.692-.437.56-.868 1.115-1.386 1.609-.102.096-.206.19-.317.275-.075.06-.324.203-.24.157.423-.226.837-.466 1.255-.7L21 49c.455-.475 1.289-.589 1.802-1.053zm19.033-2.214c-.13.075-.24.136-.357.202l.02-.014c.111-.066.447-.252.337-.188zm-2.217 1.046c.221-.114-.41.294-.652.356-.004 0-.005-.002-.01-.001.22-.12.44-.242.662-.355zM37.49 44.13c-.101.061-.184.103-.278.155l.036-.037c.07-.055.32-.164.242-.118zm-9.542 3.329c-.014-.01-.019-.027-.023-.044.07-.037.137-.079.208-.113.101-.049-.174.165-.185.157z" clip-rule="evenodd"/><path fill="#000" d="M84.33 46h-1.51v-5.688a5.204 5.204 0 01-1.95 1.144v-1.37c.394-.128.822-.372 1.284-.73.462-.362.779-.782.95-1.262h1.225V46zm7.358-1.402V46h-5.291c.057-.53.23-1.031.516-1.504.286-.476.852-1.106 1.697-1.89.68-.634 1.097-1.064 1.251-1.29.208-.311.312-.62.312-.923 0-.337-.091-.595-.274-.774-.18-.182-.428-.274-.747-.274-.315 0-.565.095-.752.285-.186.19-.293.505-.322.945l-1.504-.15c.09-.83.37-1.427.844-1.789.472-.361 1.063-.542 1.772-.542.777 0 1.388.21 1.832.628.444.42.665.94.665 1.563 0 .355-.064.693-.193 1.015a4.064 4.064 0 01-.601 1.005c-.183.232-.513.567-.989 1.004-.476.437-.778.727-.907.87a2.696 2.696 0 00-.307.42h2.998zm.972-.687l1.46-.178c.047.373.172.658.377.854.204.197.45.296.74.296.312 0 .574-.118.785-.355.215-.236.322-.555.322-.956 0-.38-.102-.68-.306-.902a.976.976 0 00-.746-.333c-.194 0-.425.037-.693.113l.166-1.23c.408.01.72-.077.935-.264a.954.954 0 00.322-.751c0-.265-.079-.477-.236-.634-.158-.158-.367-.236-.629-.236a.91.91 0 00-.66.268c-.183.18-.294.44-.333.784l-1.392-.236c.097-.476.242-.856.435-1.139.198-.286.47-.51.817-.671.35-.165.743-.247 1.176-.247.741 0 1.336.236 1.783.709.37.387.554.823.554 1.31 0 .691-.378 1.243-1.134 1.655.451.096.811.313 1.08.65.272.336.408.742.408 1.219 0 .69-.252 1.28-.757 1.767-.505.487-1.133.73-1.885.73-.713 0-1.304-.204-1.773-.612-.469-.412-.741-.949-.816-1.611z"/><path stroke="#F94C45" stroke-width="2" d="M89.5 51c4.12 0 7.9-.804 10.688-2.15C102.905 47.54 105 45.534 105 43s-2.095-4.539-4.812-5.85C97.401 35.804 93.621 35 89.5 35c-4.12 0-7.9.804-10.688 2.15C76.096 38.46 74 40.466 74 43s2.096 4.539 4.812 5.85C81.6 50.196 85.38 51 89.5 51z"/></svg>