<svg fill="none" viewBox="0 0 38 27">
  <g clip-path="url(#clip0)">
    <rect width="36.116" height="27" x=".884" fill="#0072CE" rx="1.8"/>
    <path fill="#fff" fill-rule="evenodd" d="M34.475 15.6H32.88c-.159 0-.265.005-.354.065-.092.06-.128.147-.128.262 0 .137.078.23.192.271.092.032.191.041.337.041l.474.013c.479.012.798.094.993.293.035.028.057.059.081.09V15.6zm0 2.399c-.212.309-.627.466-1.187.466h-1.69v-.78h1.683c.167 0 .284-.023.354-.091a.32.32 0 00.103-.237.298.298 0 00-.106-.241c-.064-.056-.156-.08-.309-.08-.822-.029-1.847.024-1.847-1.127 0-.528.338-1.084 1.256-1.084h1.743v-.724h-1.62c-.488 0-.843.116-1.095.297v-.297h-2.395c-.383 0-.833.094-1.046.297v-.297h-4.278v.297c-.34-.244-.915-.297-1.18-.297H20.04v.297c-.269-.259-.868-.297-1.233-.297h-3.158l-.723.777-.677-.777H9.532v5.078h4.629l.744-.79.702.79 2.853.003v-1.195h.28c.379.006.825-.01 1.22-.178v1.37h2.353v-1.323h.113c.145 0 .16.005.16.15v1.173h7.148c.454 0 .929-.115 1.191-.325v.325h2.268c.472 0 .933-.066 1.283-.234v-.946zm-3.49-1.454c.17.175.261.396.261.771 0 .783-.492 1.149-1.375 1.149h-1.704v-.78h1.697c.166 0 .284-.023.358-.091a.322.322 0 00.103-.237.311.311 0 00-.107-.241c-.066-.056-.159-.08-.311-.08-.819-.029-1.843.024-1.843-1.127 0-.528.333-1.084 1.25-1.084h1.755v.775h-1.605c-.16 0-.263.006-.35.066-.097.058-.132.146-.132.261 0 .138.081.231.191.271.093.032.192.042.34.042l.472.012c.475.012.801.094 1 .293zm-7.897-.225c-.117.07-.262.075-.433.075h-1.063v-.817h1.078c.156 0 .312.003.418.066.113.059.18.171.18.327a.392.392 0 01-.18.35zm.528.453c.195.072.354.2.429.306.123.177.141.343.145.664v.722h-.879v-.456c0-.219.021-.543-.141-.712-.128-.13-.323-.162-.642-.162h-.936v1.33h-.879v-3.64h2.02c.444 0 .766.02 1.053.172.277.166.45.393.45.808 0 .58-.39.877-.62.968zm1.106-1.948h2.92v.753h-2.049v.661h2v.743h-2v.724l2.05.003v.756h-2.921v-3.64zm-5.905 1.68h-1.13v-.927h1.14c.316 0 .536.128.536.446 0 .315-.21.48-.546.48zm-2.002 1.629L15.47 16.65l1.344-1.435v2.918zm-3.47-.428h-2.152v-.724h1.921v-.743h-1.921v-.661h2.194l.957 1.06-1 1.068zm6.957-1.682c0 1.011-.759 1.22-1.524 1.22h-1.092v1.22h-1.7l-1.078-1.204-1.12 1.204H10.32v-3.639h3.52l1.077 1.193 1.113-1.193h2.796c.695 0 1.475.191 1.475 1.199zM6.146 10.63l-.6-1.45-.595 1.45h1.195zm13.195-.577c-.12.073-.262.075-.433.075h-1.063V9.32h1.078c.153 0 .312.007.415.066.113.053.184.166.184.321 0 .16-.067.287-.18.346zm7.585.578l-.606-1.45-.602 1.45h1.208zM12.788 12.2h-.897l-.003-2.85-1.27 2.85H9.85L8.578 9.349V12.2h-1.78l-.336-.812H4.64l-.34.812h-.95l1.567-3.639h1.3l1.488 3.445V8.562h1.429l1.145 2.469 1.052-2.469h1.457v3.639zm3.576 0H13.44V8.562h2.924v.758h-2.049v.656h2v.746h-2v.726h2.049v.753zm4.122-2.659c0 .58-.39.88-.617.97.192.073.355.2.433.307.124.18.145.342.145.667v.715h-.883l-.003-.459c0-.219.021-.534-.138-.709-.128-.128-.323-.155-.638-.155h-.94V12.2h-.875V8.562h2.013c.447 0 .777.012 1.06.175.277.162.443.4.443.805zm1.4 2.659h-.893V8.562h.893v3.639zm10.36 0h-1.24l-1.66-2.731v2.731h-1.781l-.341-.812h-1.818l-.33.812h-1.024c-.426 0-.964-.094-1.27-.402-.307-.31-.467-.728-.467-1.39 0-.54.096-1.033.472-1.422.283-.29.726-.425 1.329-.425h.847v.78h-.83c-.319 0-.5.047-.673.216-.149.153-.251.442-.251.824 0 .39.078.67.24.854.135.144.38.188.61.188h.393l1.234-2.862h1.31l1.483 3.442V8.562h1.332l1.538 2.535V8.562h.897v3.639zm-28.907.715h1.496l.337-.809h.755l.336.809h2.942v-.618l.262.62h1.528l.262-.63v.628h7.312l-.004-1.327h.142c.099.003.128.012.128.175v1.152h3.781v-.31c.305.163.78.31 1.404.31h1.591l.34-.809h.755l.333.809h3.066v-.768l.464.768h2.457V7.84h-2.431v.6l-.34-.6h-2.496v.6l-.312-.6h-3.37c-.564 0-1.06.078-1.46.296v-.296H20.29v.296c-.255-.225-.602-.296-.988-.296h-8.496l-.57 1.31-.586-1.31H6.975v.6l-.294-.6H4.4l-1.06 2.413v2.662z" clip-rule="evenodd"/>
  </g>
  <defs>
    <clipPath id="clip0">
      <path fill="#fff" d="M0 0h37.001v27H0z" transform="translate(.884)"/>
    </clipPath>
  </defs>
</svg>
