<svg fill="none" viewBox="0 0 37 27">
  <g clip-path="url(#clip0)">
    <g clip-path="url(#clip1)">
      <rect width="35.216" height="26.1" x=".704" y=".45" fill="#fff" stroke="#E6772F" stroke-width=".9" rx="1.35"/>
      <path fill="#E6772F" fill-rule="evenodd" d="M11.141 27H34.57a1.8 1.8 0 001.8-1.8v-6.916S27.46 24.305 11.14 27z" clip-rule="evenodd"/>
      <mask id="a" width="26" height="9" x="11" y="18" maskUnits="userSpaceOnUse">
        <path fill="#fff" fill-rule="evenodd" d="M11.141 27H34.57a1.8 1.8 0 001.8-1.8v-6.916S27.46 24.305 11.14 27z" clip-rule="evenodd"/>
      </mask>
    </g>
    <path fill="#1A1919" fill-rule="evenodd" d="M5.51 13.737c-.304.247-.69.355-1.309.355h-.256v-2.949H4.2c.619 0 .99.101 1.309.36.329.268.526.682.526 1.11 0 .43-.197.857-.526 1.124zm-1.117-3.349H2.989v4.46h1.395c.743 0 1.279-.162 1.749-.517.558-.42.889-1.055.889-1.712 0-1.317-1.08-2.23-2.63-2.23zM7.462 10.388h.952v4.46h-.952v-4.46zM10.752 12.097c-.575-.192-.743-.32-.743-.56 0-.28.3-.493.713-.493.287 0 .522.104.773.359l.497-.594a2.258 2.258 0 00-1.438-.495c-.867 0-1.527.549-1.527 1.275 0 .616.307.929 1.203 1.226.375.118.565.2.662.254.19.113.286.274.286.46 0 .363-.316.63-.743.63-.454 0-.822-.208-1.042-.597l-.616.543c.44.588.968.85 1.696.85.991 0 1.69-.604 1.69-1.465 0-.71-.324-1.031-1.41-1.393zM12.463 12.619c0 1.311 1.13 2.327 2.587 2.327.41 0 .762-.073 1.195-.26v-1.024c-.383.35-.719.488-1.154.488-.961 0-1.643-.633-1.643-1.537 0-.854.704-1.531 1.601-1.531.454 0 .8.146 1.196.501V10.56c-.419-.193-.762-.273-1.176-.273-1.447 0-2.606 1.036-2.606 2.332zM23.985 13.382l-1.307-2.994h-1.041l2.076 4.572h.513l2.117-4.572h-1.034l-1.324 2.994zM26.776 14.847h2.709v-.755h-1.753v-1.204h1.686v-.755h-1.686v-.99h1.753v-.755h-2.709v4.46zM31.35 12.439h-.276v-1.35h.292c.597 0 .917.229.917.663 0 .447-.32.687-.932.687zm1.917-.735c0-.835-.63-1.316-1.732-1.316h-1.42v4.46h.959v-1.794h.124l1.32 1.793h1.175l-1.541-1.88c.72-.133 1.115-.58 1.115-1.263z" clip-rule="evenodd"/>
    <path fill="#E6772F" fill-rule="evenodd" d="M21.771 12.63c0 1.283-1.142 2.324-2.553 2.324-1.41 0-2.554-1.041-2.554-2.325 0-1.284 1.143-2.324 2.554-2.324 1.41 0 2.553 1.04 2.553 2.324z" clip-rule="evenodd"/>
  </g>
  <defs>
    <clipPath id="clip0">
      <path fill="#fff" d="M0 0h36.116v27H0z" transform="translate(.254)"/>
    </clipPath>
    <clipPath id="clip1">
      <path fill="#fff" d="M0 0h36.116v27H0z" transform="translate(.254)"/>
    </clipPath>
  </defs>
</svg>
