<svg fill="none" viewBox="0 0 12 12">
  <path fill="#278AE2" fill-rule="evenodd" d="M6 0C2.692 0 0 2.692 0 6s2.692 6 6 6 6-2.692 6-6-2.692-6-6-6zm0 10.5A4.505 4.505 0 011.5 6c0-2.482 2.018-4.5 4.5-4.5s4.5 2.018 4.5 4.5-2.018 4.5-4.5 4.5zm0-3a.75.75 0 11.001 1.499A.75.75 0 016 7.5zm1.907-3.778c-.083-.09-.447-.377-.59-.442A7.214 7.214 0 006.406 3h-.768c-.317.083-.941.325-1.058.413-.117.089-.463.445-.533.571-.069.126-.248.654-.265.872-.018.217.306.394.718.394s.75-.284.75-.45c0-.165.044-.45.053-.476a.93.93 0 01.2-.211c.06-.037.226-.106.369-.154H6.28c.18.1.48.4.5.52.018.12.018.417-.008.478a1.444 1.444 0 01-.204.297 5.54 5.54 0 01-.314.25 6 6 0 00-.352.268 3.088 3.088 0 00-.31.364c-.05.082-.21.375-.257.46-.047.085.253.154.665.154.412 0 .772-.178.769-.197-.003-.018.14-.183.203-.232.064-.05.296-.214.37-.26.075-.047.325-.22.39-.282.066-.061.27-.303.318-.389.047-.086.11-.244.141-.35.032-.106.032-.693 0-.791-.031-.098-.202-.436-.285-.527z" clip-rule="evenodd"/>
</svg>
