<svg fill="none" viewBox="0 0 37 27">
  <g clip-path="url(#clip0)">
    <rect width="36.116" height="27" x=".63" fill="#006" rx="1.8"/>
    <path fill="#C00" fill-rule="evenodd" d="M21.628 13.718c0 4.85-3.886 8.782-8.68 8.782s-8.68-3.931-8.68-8.782c0-4.85 3.886-8.781 8.68-8.781s8.68 3.931 8.68 8.781z" clip-rule="evenodd"/>
    <path fill="#F90" fill-rule="evenodd" d="M24.602 4.937c-2.243 0-4.287.86-5.828 2.273a8.903 8.903 0 00-.876.93h1.754c.24.294.46.605.662.93h-3.078a8.853 8.853 0 00-.5.93h4.078a8.8 8.8 0 01.367.93H16.37c-.1.302-.185.612-.253.929h5.317a8.945 8.945 0 01-.252 4.65H16.37c.105.317.228.628.367.93h4.078c-.15.32-.316.63-.5.93h-3.078c.201.323.422.634.662.928h1.754c-.27.332-.563.643-.877.93a8.593 8.593 0 005.827 2.273c4.794 0 8.68-3.931 8.68-8.782 0-4.85-3.886-8.781-8.68-8.781z" clip-rule="evenodd"/>
    <path fill="#006" fill-rule="evenodd" d="M10.92 14.68a1.6 1.6 0 00-.21-.015c-.534 0-.804.185-.804.552 0 .225.132.368.338.368.384 0 .66-.37.677-.905zm.686 1.614h-.78l.017-.375c-.238.296-.556.438-.987.438-.511 0-.861-.404-.861-.99 0-.882.609-1.396 1.654-1.396.107 0 .244.01.384.027.03-.12.037-.17.037-.234 0-.24-.164-.33-.604-.33a3.11 3.11 0 00-.998.163l.131-.815c.47-.14.78-.191 1.128-.191.81 0 1.238.367 1.237 1.062.002.186-.03.415-.076.718-.082.524-.258 1.65-.282 1.923zM8.6 16.294h-.942l.54-3.424-1.206 3.424H6.35l-.08-3.405-.567 3.405h-.882l.737-4.454h1.355l.082 2.493.827-2.493h1.507L8.6 16.294zM25.767 14.68a1.59 1.59 0 00-.21-.015c-.535 0-.805.185-.805.552 0 .225.132.368.338.368.384 0 .66-.37.677-.905zm.685 1.614h-.78l.017-.375c-.238.296-.555.438-.987.438-.511 0-.861-.404-.861-.99 0-.882.61-1.396 1.654-1.396.107 0 .244.01.384.027a.9.9 0 00.037-.234c0-.24-.164-.33-.604-.33a3.117 3.117 0 00-.998.163l.131-.815c.47-.14.78-.191 1.128-.191.81 0 1.238.367 1.237 1.062.001.186-.029.415-.076.718-.082.524-.258 1.65-.282 1.923zM15.795 16.239a2.13 2.13 0 01-.678.118c-.481 0-.744-.28-.744-.796-.007-.16.07-.582.129-.966.054-.338.409-2.472.409-2.472h.936l-.11.549h.567l-.128.87h-.568c-.109.689-.264 1.547-.265 1.661 0 .187.098.268.322.268.108 0 .19-.01.254-.034l-.124.802zM18.667 16.21c-.322.1-.632.148-.962.147-1.048-.002-1.595-.555-1.595-1.616 0-1.239.695-2.15 1.64-2.15.772 0 1.265.51 1.265 1.31 0 .266-.033.526-.115.891h-1.866c-.063.526.27.745.815.745.335 0 .637-.07.974-.228l-.156.9zm-.527-2.148c.005-.075.1-.646-.436-.646-.298 0-.512.23-.598.646h1.034zM12.172 13.817c0 .458.22.774.717 1.011.382.182.441.236.441.4 0 .226-.168.328-.541.328a2.62 2.62 0 01-.845-.143l-.13.837c.215.046.406.09.982.107.994 0 1.453-.383 1.453-1.211 0-.498-.192-.79-.664-1.01-.395-.183-.44-.224-.44-.393 0-.196.156-.296.46-.296.185 0 .438.02.678.054l.134-.84a6.303 6.303 0 00-.83-.07c-1.054 0-1.419.557-1.415 1.226zM23.25 12.686c.262 0 .506.069.842.24l.154-.966c-.138-.055-.624-.377-1.035-.377-.631 0-1.165.317-1.54.839-.546-.183-.771.187-1.047.556l-.245.058a1.87 1.87 0 00.03-.364h-.866c-.118 1.121-.327 2.256-.491 3.378l-.043.244h.943a62.57 62.57 0 00.296-2.145l.355-.2c.053-.2.219-.266.552-.258a4.102 4.102 0 00-.067.742c0 1.186.633 1.924 1.647 1.924.26 0 .485-.035.833-.13l.165-1.016c-.313.155-.568.229-.8.229-.548 0-.88-.41-.88-1.086 0-.98.493-1.668 1.197-1.668zM31.229 11.84l-.21 1.287c-.257-.343-.534-.592-.9-.592-.475 0-.908.365-1.191.902-.395-.083-.803-.224-.803-.224v.004c.032-.3.045-.483.042-.546H27.3c-.118 1.122-.327 2.258-.491 3.38l-.043.243h.943c.127-.836.224-1.531.296-2.081.322-.295.484-.551.809-.535a3.136 3.136 0 00-.229 1.176c0 .905.453 1.503 1.138 1.503.346 0 .61-.121.869-.4l-.044.337h.891l.718-4.454h-.93zm-1.179 3.617c-.32 0-.483-.24-.483-.714 0-.712.303-1.217.73-1.217.325 0 .5.25.5.71 0 .718-.308 1.221-.747 1.221z" clip-rule="evenodd"/>
    <path fill="#fff" fill-rule="evenodd" d="M8.871 16.03H7.93l.54-3.424-1.205 3.424H6.62l-.079-3.405-.567 3.405h-.882l.736-4.454h1.356l.037 2.757.915-2.757H9.6l-.729 4.454zM11.192 14.416a1.543 1.543 0 00-.21-.015c-.534 0-.805.185-.805.551 0 .226.132.37.338.37.384 0 .66-.37.677-.906zm.685 1.614h-.78l.018-.375c-.239.296-.556.438-.988.438-.51 0-.86-.404-.86-.99 0-.883.608-1.396 1.654-1.396.107 0 .243.01.384.028a.911.911 0 00.037-.236c0-.24-.165-.329-.605-.329a3.099 3.099 0 00-.997.163l.13-.815c.47-.14.78-.192 1.128-.192.81 0 1.238.368 1.237 1.063.002.186-.029.416-.076.717-.082.524-.258 1.65-.282 1.924zM24.517 11.696l-.154.966c-.336-.17-.58-.24-.842-.24-.703 0-1.197.688-1.197 1.669 0 .676.332 1.084.88 1.084.232 0 .488-.072.8-.228l-.166 1.015c-.346.096-.571.13-.832.13-1.015 0-1.647-.737-1.647-1.922 0-1.593.874-2.706 2.123-2.706.411 0 .897.177 1.035.232zM26.038 14.416a1.53 1.53 0 00-.21-.015c-.534 0-.804.185-.804.551 0 .226.131.37.337.37.384 0 .66-.37.677-.906zm.686 1.614h-.781l.017-.375c-.238.296-.556.438-.987.438-.511 0-.86-.404-.86-.99 0-.883.608-1.396 1.654-1.396.106 0 .243.01.383.028.03-.12.037-.171.037-.236 0-.24-.164-.329-.604-.329a3.1 3.1 0 00-.997.163l.13-.815c.47-.14.78-.192 1.128-.192.81 0 1.238.368 1.237 1.063.002.186-.029.416-.076.717-.082.524-.257 1.65-.281 1.924zM16.066 15.975a2.13 2.13 0 01-.677.118c-.482 0-.745-.28-.745-.796-.007-.16.07-.581.13-.966.054-.338.408-2.472.408-2.472h.937l-.11.548h.481l-.128.87h-.483c-.108.69-.263 1.548-.265 1.662 0 .187.098.268.322.268.108 0 .19-.01.255-.034l-.125.802zM18.938 15.946c-.322.1-.633.147-.961.147-1.05-.001-1.596-.556-1.596-1.616 0-1.239.696-2.15 1.64-2.15.772 0 1.265.51 1.265 1.31 0 .266-.034.525-.115.891h-1.866c-.063.526.27.745.815.745.335 0 .637-.07.974-.228l-.156.901zm-.526-2.148c.005-.076.099-.647-.436-.647-.299 0-.512.23-.6.647h1.035zM12.443 13.553c0 .458.22.773.718 1.011.381.182.44.235.44.4 0 .226-.168.328-.541.328-.281 0-.543-.044-.845-.143l-.129.836c.214.047.405.09.98.108.995 0 1.454-.383 1.454-1.211 0-.498-.192-.79-.664-1.01-.395-.183-.44-.224-.44-.393 0-.196.156-.297.46-.297.186 0 .438.021.678.055l.134-.84a6.343 6.343 0 00-.83-.07c-1.054 0-1.418.556-1.415 1.226zM31.712 16.03h-.892l.044-.337c-.258.279-.523.4-.869.4-.684 0-1.138-.598-1.138-1.504 0-1.205.703-2.22 1.534-2.22.365 0 .642.15.9.494l.209-1.287h.93l-.718 4.454zm-1.39-.837c.438 0 .746-.503.746-1.22 0-.461-.175-.711-.499-.711-.427 0-.73.505-.73 1.217 0 .474.162.714.482.714zM27.572 12.407c-.117 1.122-.327 2.257-.491 3.38l-.043.243h.943c.337-2.216.418-2.648.947-2.594.084-.453.24-.85.357-1.05-.394-.084-.615.142-.904.57.023-.185.065-.365.057-.549h-.866zM19.815 12.407c-.118 1.122-.328 2.257-.492 3.38l-.043.243h.943c.337-2.216.418-2.648.946-2.594.085-.453.242-.85.359-1.05-.395-.084-.616.142-.904.57.023-.185.065-.365.056-.549h-.865z" clip-rule="evenodd"/>
  </g>
  <defs>
    <clipPath id="clip0">
      <path fill="#fff" d="M0 0h36.116v27H0z" transform="translate(.63)"/>
    </clipPath>
  </defs>
</svg>
