<svg fill="none" viewBox="0 0 37 27">
  <g clip-path="url(#clip0)">
    <rect width="36.116" height="27" fill="#26337A" rx="1.8"/>
    <path fill="#FFFFFE" fill-rule="evenodd" d="M13.313 17.796l1.388-8.583h2.219l-1.388 8.583h-2.219zM23.58 9.423a5.5 5.5 0 00-1.988-.36c-2.194 0-3.738 1.165-3.75 2.833-.015 1.234 1.101 1.922 1.943 2.332.864.42 1.155.69 1.151 1.065-.006.575-.69.838-1.328.838-.888 0-1.36-.13-2.09-.45l-.285-.136-.31 1.92c.517.24 1.476.447 2.471.458 2.332 0 3.847-1.15 3.864-2.931.008-.979-.583-1.72-1.863-2.333-.776-.398-1.252-.661-1.246-1.064 0-.357.402-.739 1.271-.739a3.902 3.902 0 011.66.33l.2.098.3-1.86zM26.535 14.753c.184-.494.884-2.4.884-2.4-.013.023.183-.496.295-.818l.15.74.513 2.478h-1.842zm2.737-5.532h-1.715c-.531 0-.93.152-1.163.712L23.1 17.799h2.33s.381-1.058.467-1.29l2.842.004c.067.3.27 1.286.27 1.286h2.06l-1.796-8.578zM11.452 9.22L9.28 15.072l-.233-1.19c-.404-1.37-1.664-2.856-3.073-3.6l1.987 7.507 2.348-.002 3.494-8.567h-2.351z" clip-rule="evenodd"/>
    <path fill="#EC982D" fill-rule="evenodd" d="M7.264 9.214H3.686l-.03.178c2.785.71 4.627 2.427 5.391 4.49L8.27 9.938c-.134-.544-.524-.705-1.006-.724z" clip-rule="evenodd"/>
  </g>
  <defs>
    <clipPath id="clip0">
      <path fill="#fff" d="M0 0h36.116v27H0z"/>
    </clipPath>
  </defs>
</svg>
